# xmcd
#
# Track frame offsets: 
#        150
#        18629
#        37011
#        52677
#        71353
#        107672
#        130969
#        150576
#        176655
#
# Disc length: 2566 seconds
#
# Revision: 0
# Processed by: cddbd v1.5.2PL0 Copyright (c) Steve Scherf et al.
# Submitted via: ExactAudioCopy v0.95b4
#
DISCID=6f0a0409
DTITLE=Splash - Studio Live
DYEAR=1999
DGENRE=Beat
TTITLE0=Power Of Love
TTITLE1=Every Brath You Take
TTITLE2=Take Me To The River
TTITLE3=Stars
TTITLE4=With A Little Help From My Friends
TTITLE5=Bad Intentions
TTITLE6=Under the Bridge
TTITLE7=Medley: Love The One You´re With
TTITLE8=Dancing In The Street
EXTD=
EXTT0=
EXTT1=
EXTT2=
EXTT3=
EXTT4=
EXTT5=
EXTT6=
EXTT7=
EXTT8=
PLAYORDER=
